<svg width="80" height="80" viewBox="0 0 80 80" fill="none" xmlns="http://www.w3.org/2000/svg">
<path d="M61.215 11.715C63.17 9.76 66.335 9.76 68.285 11.715C70.24 13.665 70.24 16.835 68.285 18.785L61.215 25.86C59.26 27.81 56.095 27.81 54.145 25.86C52.19 23.905 52.19 20.74 54.145 18.785L61.215 11.715ZM60 40C60 37.24 62.24 35 65 35H75C77.76 35 80 37.24 80 40C80 42.76 77.76 45 75 45H65C62.24 45 60 42.76 60 40Z" fill="#212845" fill-opacity="0.25"/>
<path d="M40 60C42.76 60 45 62.235 45 65V75C45 77.765 42.76 80 40 80C37.24 80 35 77.765 35 75V65C35 62.235 37.24 60 40 60ZM61.215 54.14L68.285 61.21C70.24 63.165 70.24 66.33 68.285 68.28C66.335 70.235 63.17 70.235 61.215 68.28L54.145 61.21C52.19 59.255 52.19 56.095 54.145 54.14C56.095 52.19 59.26 52.19 61.215 54.14Z" fill="#212845" fill-opacity="0.5"/>
<path d="M18.79 54.14C20.745 52.185 23.905 52.185 25.86 54.14C27.815 56.095 27.815 59.255 25.86 61.21L18.79 68.28C16.835 70.235 13.67 70.235 11.72 68.28C9.76505 66.33 9.76505 63.165 11.72 61.21L18.79 54.14ZM5.00005 35H15C17.765 35 20 37.24 20 40C20 42.76 17.765 45 15 45H5.00005C2.23505 45 4.57764e-05 42.76 4.57764e-05 40C4.57764e-05 37.24 2.23505 35 5.00005 35Z" fill="#212845" fill-opacity="0.75"/>
<path d="M40 0C42.76 0 45 2.24 45 5V15C45 17.76 42.76 20 40 20C37.24 20 35 17.76 35 15V5C35 2.24 37.24 0 40 0ZM18.79 25.86L11.72 18.785C9.765 16.835 9.765 13.665 11.72 11.715C13.67 9.76 16.835 9.76 18.79 11.715L25.86 18.785C27.815 20.74 27.815 23.905 25.86 25.86C23.905 27.81 20.74 27.81 18.79 25.86Z" fill="#212845"/>
</svg>
